<svg width="190" height="70" viewBox="0 0 190 70" fill="none" xmlns="http://www.w3.org/2000/svg">
<path d="M35.8822 0C16.3726 0 0.5 15.7018 0.5 34.9986C0.5 54.2982 16.3726 70 35.8822 70C55.3917 70 71.2617 54.2982 71.2617 34.9986C71.2617 15.699 55.3889 0 35.8822 0ZM39.3737 66.3469V48.289V36.821H49.1635C49.8988 38.6434 51.6962 39.9376 53.7956 39.9376C56.5463 39.9376 58.7854 37.7225 58.7854 35.0014C58.7854 32.2803 56.5463 30.0652 53.7956 30.0652C51.6263 30.0652 49.7813 31.4451 49.0964 33.3615H39.3737V22.936V22.7148L42.5913 20.1679H49.1327C49.8428 22.0373 51.6655 23.373 53.7984 23.373C56.5491 23.373 58.7882 21.1579 58.7882 18.4368C58.7882 15.7157 56.5491 13.5006 53.7984 13.5006C51.6627 13.5006 49.8428 14.8363 49.1327 16.7057H41.9791L40.886 17.0845L36.5336 20.5302L35.8767 21.8824V22.936V33.3615H14.8966V22.936V22.7148L18.1143 20.1679H24.4878C25.1979 22.0373 27.0206 23.373 29.1535 23.373C31.9042 23.373 34.1435 21.1579 34.1435 18.4368C34.1435 15.7157 31.9042 13.5006 29.1535 13.5006C27.0177 13.5006 25.1979 14.8363 24.4878 16.7057H17.4992L16.4061 17.0845L12.0537 20.5302L11.3968 21.8824V22.9361V48.2918V49.3454L12.0537 50.6977L16.4061 54.1433L17.4992 54.5222H24.4878C25.1979 56.3916 27.0206 57.7273 29.1535 57.7273C31.9042 57.7273 34.1435 55.5122 34.1435 52.791C34.1435 50.0699 31.9042 47.8549 29.1535 47.8549C27.0177 47.8549 25.1979 49.1905 24.4878 51.0599H18.1143L14.8966 48.513V48.2918V36.8238H35.8767V48.2918V66.5433C18.2988 66.5405 3.99715 52.3929 3.99715 35.0042C3.99715 17.6127 18.2986 3.46503 35.8793 3.46503C53.46 3.46503 67.7617 17.6127 67.7617 35.0042C67.7645 51.2231 55.3162 64.6186 39.3737 66.347V66.3469ZM52.3084 34.9986C52.3084 34.1856 52.9766 33.5247 53.7984 33.5247C54.6203 33.5247 55.2883 34.1856 55.2883 34.9986C55.2883 35.8116 54.6203 36.4726 53.7984 36.4726C52.9766 36.4753 52.3084 35.8116 52.3084 34.9986ZM52.3084 18.4368C52.3084 17.6238 52.9766 16.9628 53.7984 16.9628C54.6203 16.9628 55.2883 17.6238 55.2883 18.4368C55.2883 19.2498 54.6203 19.9107 53.7984 19.9107C52.9766 19.9135 52.3084 19.2498 52.3084 18.4368ZM27.6635 18.4368C27.6635 17.6238 28.3317 16.9628 29.1535 16.9628C29.9754 16.9628 30.6435 17.6238 30.6435 18.4368C30.6435 19.2498 29.9754 19.9107 29.1535 19.9107C28.3317 19.9135 27.6635 19.2498 27.6635 18.4368ZM27.6635 52.7855C27.6635 51.9725 28.3317 51.3116 29.1535 51.3116C29.9754 51.3116 30.6435 51.9725 30.6435 52.7855C30.6435 53.5986 29.9754 54.2595 29.1535 54.2595C28.3317 54.2595 27.6635 53.5986 27.6635 52.7855Z" fill="url(#paint0_linear_601_9907)"/>
<path d="M90.4232 32.2368C88.2679 32.4774 85.4082 32.4774 82.9006 32.4774C80.832 32.4774 79.4482 31.1942 79.4482 29.2585V20.5558C79.4482 18.6201 80.8572 17.3369 82.9006 17.3369C85.4082 17.3369 88.2679 17.3369 90.4232 17.5775L90.2248 20.5143H84.5276C83.9126 20.5143 83.5827 20.8407 83.5827 21.449V23.2769H89.4113V26.0838H83.5827V28.368C83.5827 28.9764 83.9126 29.3027 84.5276 29.3027H90.2248L90.4232 32.2368Z" fill="#002E6E"/>
<path d="M102.693 17.7905L102.427 20.4674C101.13 20.4452 99.1287 20.401 97.3704 20.401C96.0285 20.401 95.5896 20.5088 95.5896 21.3357C95.5896 22.0326 95.9642 22.2925 97.0405 22.6631L99.8332 23.7277C102.318 24.7067 103.154 26.0341 103.154 28.2325C103.154 31.6257 101.681 32.6931 97.2166 32.6931C96.2046 32.6931 94.1388 32.6488 91.6536 32.0405L91.894 29.1479C94.6 29.2143 96.2941 29.2557 97.1942 29.2557C98.6451 29.2557 99.0197 29.0815 99.0197 28.321C99.0197 27.6048 98.7122 27.3863 97.8092 27.06L94.7734 25.8626C92.3748 24.9058 91.4971 23.6227 91.4971 21.4021C91.4971 17.9647 93.124 17.1157 97.4123 17.1157C98.9526 17.1185 100.932 17.2263 102.693 17.7905Z" fill="#002E6E"/>
<path d="M115.685 17.6825L115.378 20.6857C113.882 20.6414 112.915 20.6193 110.891 20.6193C109.088 20.6193 108.582 21.5319 108.582 24.9056C108.582 28.2766 109.088 29.192 110.891 29.192C113.024 29.192 114.279 29.1699 115.685 29.0178L116.015 31.9988C114.542 32.4994 113.178 32.6736 110.891 32.6736C106.03 32.6736 104.249 30.6272 104.249 24.9056C104.249 19.1841 106.03 17.1377 110.891 17.1377C113.158 17.1377 114.234 17.2926 115.685 17.6825Z" fill="#002E6E"/>
<path d="M130.309 24.9056C130.309 31.0199 128.506 32.715 123.491 32.715C118.476 32.715 116.695 31.0171 116.695 24.9056C116.695 18.7914 118.476 17.0962 123.491 17.0962C128.506 17.0962 130.309 18.7914 130.309 24.9056ZM121.028 24.9056C121.028 28.6029 121.557 29.5846 123.491 29.5846C125.426 29.5846 125.954 28.6057 125.954 24.9056C125.954 21.2083 125.426 20.2294 123.491 20.2294C121.557 20.2294 121.028 21.2083 121.028 24.9056Z" fill="#002E6E"/>
<path d="M136.135 28.2129C136.135 28.8212 136.464 29.1476 137.169 29.1476H142.315L142.514 32.2144C140.358 32.4743 137.896 32.4743 135.542 32.4743C133.233 32.4743 132 31.1248 132 29.1669V17.3975H136.135V28.2129Z" fill="#002E6E"/>
<path d="M147.303 28.8435L146.403 32.4109H142.179L146.336 18.4651C146.489 17.8124 147.062 17.4004 147.722 17.4004H151.549C152.209 17.4004 152.782 17.8124 152.958 18.4651L157.093 32.4109H152.869L151.966 28.8435H147.303ZM150.23 22.0352C150.121 21.5346 149.989 20.9677 149.945 20.4672H149.352C149.262 20.9677 149.153 21.5319 149.044 22.0352L148.055 25.8846H151.222L150.23 22.0352Z" fill="#002E6E"/>
<path d="M174.614 24.9058C174.614 30.9316 172.833 32.6295 167.818 32.6295C165.398 32.6295 163.418 32.5438 161.596 32.4111V17.4006C163.444 17.2927 165.356 17.1821 167.818 17.1821C172.833 17.1821 174.614 18.8801 174.614 24.9058ZM170.262 24.9058C170.262 21.2085 169.733 20.2296 167.821 20.2296H165.73V29.5406C166.368 29.5627 167.072 29.5627 167.821 29.5627C169.733 29.5627 170.262 28.6059 170.262 24.9058Z" fill="#002E6E"/>
<path d="M189.5 24.9056C189.5 31.0199 187.697 32.715 182.682 32.715C177.666 32.715 175.886 31.0171 175.886 24.9056C175.886 18.7914 177.666 17.0962 182.682 17.0962C187.697 17.0962 189.5 18.7914 189.5 24.9056ZM180.219 24.9056C180.219 28.6029 180.747 29.5846 182.682 29.5846C184.616 29.5846 185.144 28.6057 185.144 24.9056C185.144 21.2083 184.616 20.2294 182.682 20.2294C180.747 20.2294 180.219 21.2083 180.219 24.9056Z" fill="#002E6E"/>
<path d="M84.7039 40.8122C83.9994 40.8122 83.6472 41.1385 83.6472 41.7469V43.8569H89.2549V46.6858H83.6472V52.7116H79.5127V40.8979C79.5127 38.9179 80.9412 37.6348 83.0098 37.6348C85.4279 37.6348 88.2234 37.6348 90.2669 37.8947L90.0684 40.8094H84.7039V40.8122Z" fill="#002E6E"/>
<path d="M104.275 46.6223C104.275 51.2985 102.626 53.0186 98.0746 53.0186C93.191 53.0186 91.4326 51.2985 91.4326 46.6223V37.7012H95.5671V46.6223C95.5671 49.1886 96.0955 49.8854 97.8538 49.8854C99.615 49.8854 100.14 49.1886 100.14 46.6223V37.7012H104.275V46.6223Z" fill="#002E6E"/>
<path d="M113.837 40.8565V52.7144H109.703V40.8565H105.348V37.7012H118.215V40.8565H113.837Z" fill="#002E6E"/>
<path d="M132.134 46.6223C132.134 51.2985 130.485 53.0186 125.934 53.0186C121.05 53.0186 119.292 51.2985 119.292 46.6223V37.7012H123.426V46.6223C123.426 49.1886 123.955 49.8854 125.713 49.8854C127.474 49.8854 128 49.1886 128 46.6223V37.7012H132.134V46.6223Z" fill="#002E6E"/>
<path d="M142.665 52.7144L141.589 48.1875C141.368 47.3192 140.993 47.0565 140.16 47.0565H138.29V52.7117H134.223V37.6984C136.157 37.5021 137.477 37.48 140.359 37.48C144.605 37.48 146.408 38.5253 146.408 42.0069C146.408 43.9427 145.681 45.4 143.417 45.6406V45.7706C144.23 45.9006 145.396 46.3568 145.748 48.0769L147.001 52.7117H142.665V52.7144ZM140.266 44.0754C141.829 44.0754 142.246 43.7048 142.246 42.2696C142.246 40.8344 141.829 40.4638 140.266 40.4638H138.287V44.0754H140.266Z" fill="#002E6E"/>
<path d="M161.378 45.2064C161.378 51.3206 159.575 53.0158 154.559 53.0158C149.544 53.0158 147.764 51.3179 147.764 45.2064C147.764 39.0949 149.544 37.397 154.559 37.397C159.575 37.397 161.378 39.0949 161.378 45.2064ZM152.097 45.2064C152.097 48.9037 152.625 49.8854 154.559 49.8854C156.494 49.8854 157.022 48.9065 157.022 45.2064C157.022 41.5063 156.494 40.5302 154.559 40.5302C152.625 40.5302 152.097 41.5091 152.097 45.2064Z" fill="#002E6E"/>
<defs>
<linearGradient id="paint0_linear_601_9907" x1="35.8811" y1="69.9993" x2="35.8811" y2="-0.000771881" gradientUnits="userSpaceOnUse">
<stop stop-color="#0086A9"/>
<stop offset="1" stop-color="#29B677"/>
</linearGradient>
</defs>
</svg>
