<svg width="592" height="465" viewBox="0 0 592 465" fill="none" xmlns="http://www.w3.org/2000/svg">
<path d="M143.642 0C64.4442 0 0 64.3889 0 143.518C0 222.648 64.4442 287.037 143.642 287.037C222.839 287.037 287.283 222.648 287.283 143.518C287.283 64.3889 222.839 0 143.642 0ZM157.835 272.045V150.987H197.588C200.555 158.455 207.862 163.769 216.4 163.769C227.57 163.769 236.641 154.679 236.641 143.546C236.641 132.414 227.542 123.324 216.4 123.324C207.582 123.324 200.107 128.974 197.308 136.833H157.835V93.1709L170.881 82.7378H197.42C200.303 90.4018 207.694 95.8841 216.372 95.8841C227.542 95.8841 236.613 86.7936 236.613 75.6612C236.613 64.5288 227.514 55.4382 216.372 55.4382C207.694 55.4382 200.303 60.9205 197.42 68.5846H168.389L163.966 70.1509L146.301 84.2762L143.642 89.8144V136.861H58.4533V93.1989L71.4989 82.7658H97.3661C100.25 90.4298 107.64 95.9121 116.319 95.9121C127.489 95.9121 136.559 86.8216 136.559 75.6892C136.559 64.5567 127.461 55.4662 116.319 55.4662C107.64 55.4662 100.25 60.9485 97.3661 68.6125H69.0073L64.5842 70.1789L46.9194 84.3042L44.2599 89.8424V202.425L46.9194 207.963L64.5842 222.089L69.0073 223.655H97.3661C100.25 231.319 107.64 236.801 116.319 236.801C127.489 236.801 136.559 227.711 136.559 216.578C136.559 205.446 127.461 196.355 116.319 196.355C107.64 196.355 100.25 201.838 97.3661 209.502H71.4989L58.4533 199.069V151.127H143.614V272.996C72.2547 272.996 14.1934 214.984 14.1934 143.686C14.1934 72.3886 72.2547 14.1812 143.642 14.1812C215.029 14.1812 273.062 72.1928 273.062 143.491C273.062 210.005 222.531 264.94 157.807 272.017L157.835 272.045ZM210.325 143.518C210.325 140.19 213.041 137.477 216.372 137.477C219.704 137.477 222.419 140.19 222.419 143.518C222.419 146.847 219.704 149.56 216.372 149.56C213.041 149.56 210.325 146.847 210.325 143.518ZM210.325 75.6052C210.325 72.2767 213.041 69.5635 216.372 69.5635C219.704 69.5635 222.419 72.2767 222.419 75.6052C222.419 78.9338 219.704 81.6469 216.372 81.6469C213.041 81.6469 210.325 78.9338 210.325 75.6052ZM110.3 75.6052C110.3 72.2767 113.015 69.5635 116.347 69.5635C119.678 69.5635 122.394 72.2767 122.394 75.6052C122.394 78.9338 119.678 81.6469 116.347 81.6469C113.015 81.6469 110.3 78.9338 110.3 75.6052ZM110.3 216.439C110.3 213.11 113.015 210.397 116.347 210.397C119.678 210.397 122.394 213.11 122.394 216.439C122.394 219.767 119.678 222.48 116.347 222.48C113.015 222.48 110.3 219.767 110.3 216.439Z" fill="white"/>
<path d="M189.593 379.729C180.827 380.709 169.231 380.709 159.035 380.709C150.633 380.709 145.003 375.448 145.003 367.5V331.791C145.003 323.843 150.717 318.582 159.035 318.582C169.231 318.582 180.827 318.582 189.593 319.562L188.781 331.623H165.646C163.153 331.623 161.808 332.966 161.808 335.457V342.957H185.476V354.459H161.808V363.834C161.808 366.325 163.153 367.668 165.646 367.668H188.781L189.593 379.729Z" fill="white"/>
<path d="M239.422 320.485L238.357 331.455C233.092 331.371 224.969 331.175 217.827 331.175C212.365 331.175 210.6 331.623 210.6 335.009C210.6 337.864 212.113 338.927 216.482 340.466L227.826 344.832C237.909 348.862 241.326 354.291 241.326 363.302C241.326 377.239 235.332 381.604 217.211 381.604C213.093 381.604 204.719 381.437 194.607 378.918L195.588 367.052C206.567 367.332 213.457 367.5 217.127 367.5C223.008 367.5 224.549 366.772 224.549 363.666C224.549 360.728 223.289 359.832 219.647 358.489L207.323 353.591C197.576 349.673 194.019 344.412 194.019 335.289C194.019 321.185 200.629 317.715 218.051 317.715C224.297 317.715 232.335 318.162 239.478 320.485H239.422Z" fill="white"/>
<path d="M292.219 320.037L290.958 332.351C284.88 332.183 280.959 332.071 272.724 332.071C265.414 332.071 263.341 335.821 263.341 349.645C263.341 363.47 265.386 367.22 272.724 367.22C281.379 367.22 286.477 367.136 292.191 366.492L293.535 378.722C287.541 380.765 282.023 381.492 272.724 381.492C252.978 381.492 245.752 373.097 245.752 349.618C245.752 326.138 252.978 317.743 272.724 317.743C281.939 317.743 286.309 318.358 292.191 319.981L292.219 320.037Z" fill="white"/>
<path d="M351.598 349.673C351.598 374.748 344.26 381.716 323.897 381.716C303.534 381.716 296.28 374.748 296.28 349.673C296.28 324.599 303.506 317.631 323.897 317.631C344.288 317.631 351.598 324.599 351.598 349.673ZM313.898 349.673C313.898 364.841 316.054 368.871 323.897 368.871C331.74 368.871 333.896 364.841 333.896 349.673C333.896 334.506 331.74 330.476 323.897 330.476C316.054 330.476 313.898 334.478 313.898 349.673Z" fill="white"/>
<path d="M375.266 363.218C375.266 365.709 376.61 367.052 379.467 367.052H400.362L401.174 379.646C392.407 380.709 382.408 380.709 372.857 380.709C363.306 380.709 358.46 375.168 358.46 367.136V318.862H375.266V363.218Z" fill="white"/>
<path d="M420.612 365.821L416.943 380.457H399.802L416.691 323.256C417.307 320.569 419.632 318.89 422.321 318.89H437.866C440.555 318.89 442.88 320.597 443.58 323.256L460.385 380.457H443.244L439.575 365.821H420.64H420.612ZM432.488 337.892C432.04 335.849 431.508 333.526 431.34 331.455H428.931C428.567 333.498 428.119 335.821 427.671 337.892L423.665 353.675H436.522L432.488 337.892Z" fill="white"/>
<path d="M531.557 349.673C531.557 374.384 524.33 381.353 503.968 381.353C494.137 381.353 486.098 380.989 478.676 380.457V318.862C486.182 318.414 493.94 317.966 503.968 317.966C524.33 317.966 531.557 324.935 531.557 349.646V349.673ZM513.883 349.673C513.883 334.506 511.726 330.476 503.968 330.476H495.481V368.675C498.058 368.759 500.943 368.759 503.968 368.759C511.726 368.759 513.883 364.841 513.883 349.673Z" fill="white"/>
<path d="M592 349.673C592 374.748 584.662 381.716 564.299 381.716C543.936 381.716 536.682 374.748 536.682 349.673C536.682 324.599 543.908 317.631 564.299 317.631C584.69 317.631 592 324.599 592 349.673ZM554.3 349.673C554.3 364.841 556.457 368.871 564.299 368.871C572.142 368.871 574.298 364.841 574.298 349.673C574.298 334.506 572.142 330.476 564.299 330.476C556.457 330.476 554.3 334.478 554.3 349.673Z" fill="white"/>
<path d="M166.374 414.907C163.517 414.907 162.089 416.25 162.089 418.741V427.388H184.86V439.002H162.089V463.713H145.283V415.242C145.283 407.127 151.081 401.866 159.484 401.866C169.315 401.866 180.659 401.866 188.95 402.929L188.137 414.879H166.346L166.374 414.907Z" fill="white"/>
<path d="M245.864 438.75C245.864 457.948 239.17 465 220.684 465C200.853 465 193.711 457.948 193.711 438.75V402.145H210.489V438.75C210.489 449.272 212.645 452.127 219.788 452.127C226.93 452.127 229.087 449.272 229.087 438.75V402.145H245.864V438.75Z" fill="white"/>
<path d="M284.713 415.103V463.741H267.907V415.103H250.205V402.173H302.47V415.103H284.685H284.713Z" fill="white"/>
<path d="M359.02 438.75C359.02 457.948 352.326 465 333.84 465C314.01 465 306.867 457.948 306.867 438.75V402.145H323.645V438.75C323.645 449.272 325.802 452.127 332.944 452.127C340.086 452.127 342.243 449.272 342.243 438.75V402.145H359.02V438.75Z" fill="white"/>
<path d="M401.791 463.741L397.421 445.187C396.525 441.632 395.012 440.541 391.623 440.541H384.033V463.741H367.508V402.146C375.378 401.334 380.728 401.25 392.436 401.25C409.689 401.25 417 405.532 417 419.804C417 427.752 414.059 433.713 404.844 434.72V435.252C408.149 435.784 412.882 437.659 414.311 444.711L419.408 463.713H401.819L401.791 463.741ZM392.044 428.312C398.374 428.312 400.082 426.8 400.082 420.895C400.082 414.991 398.374 413.479 392.044 413.479H384.005V428.284H392.044V428.312Z" fill="white"/>
<path d="M477.779 432.957C477.779 458.032 470.441 465 450.078 465C429.716 465 422.461 458.032 422.461 432.957C422.461 407.882 429.688 400.914 450.078 400.914C470.469 400.914 477.779 407.882 477.779 432.957ZM440.079 432.957C440.079 448.125 442.236 452.155 450.078 452.155C457.921 452.155 460.077 448.125 460.077 432.957C460.077 417.789 457.921 413.759 450.078 413.759C442.236 413.759 440.079 417.761 440.079 432.957Z" fill="white"/>
</svg>
